# xmcd
#
# Track frame offsets: 
#        300
#        20489
#        39753
#        72648
#        95625
#        113095
#        131302
#        152368
#        176998
#        200853
#
# Disc length: 2988 seconds
#
# Revision: 6
# Processed by: cddbd v1.5.2PL0 Copyright (c) Steve Scherf et al.
# Submitted via: ExactAudioCopy v1.0b1
#
DISCID=880ba80a
DTITLE=Robert Cray - I Was Warned
DYEAR=1992
DGENRE=Blues
TTITLE0=Just a Loser
TTITLE1=I'm a Good Man
TTITLE2=I Was Warned
TTITLE3=The Price I Pay
TTITLE4=Won The Battle
TTITLE5=On The Road Down
TTITLE6=A Whole Lotta Pride
TTITLE7=A Picture of a Broken Heart
TTITLE8=He Don't Live Here Anymore
TTITLE9=Our Last Time
EXTD=
EXTT0=
EXTT1=
EXTT2=
EXTT3=
EXTT4=
EXTT5=
EXTT6=
EXTT7=
EXTT8=
EXTT9=
PLAYORDER=
